PathFileType	4	(X/Y/Z)	./resultDataOpenSim/trcMotMarkerGrf/sub09/qtm-13-02.trc
DataRate	CameraRate	NumFrames	NumMarkers	Units	OrigDataRate	OrigDataStartFrame	OrigNumFrames
250.000000	250.000000	6	24	m	250.000000	393	523
Frame#	Time	L.Toe.Tip			R.Toe.Tip			L.Ankle.Lat			R.Ankle.Lat			L.Ankle.Med			R.Ankle.Med			L.Heel			R.Heel			L.Knee.Lat			R.Knee.Lat			L.Knee.Med			R.Knee.Med			L.Thigh.Upper			R.Thigh.Upper			L.ASIS			R.ASIS			V.Sacral			L.Acromium			R.Acromium			C7			L.Elbow			R.Elbow			L.Wrist.Lat			R.Wrist.Lat
		X1	Y1	Z1	X2	Y2	Z2	X3	Y3	Z3	X4	Y4	Z4	X5	Y5	Z5	X6	Y6	Z6	X7	Y7	Z7	X8	Y8	Z8	X9	Y9	Z9	X10	Y10	Z10	X11	Y11	Z11	X12	Y12	Z12	X13	Y13	Z13	X14	Y14	Z14	X15	Y15	Z15	X16	Y16	Z16	X17	Y17	Z17	X18	Y18	Z18	X19	Y19	Z19	X20	Y20	Z20	X21	Y21	Z21	X22	Y22	Z22	X23	Y23	Z23	X24	Y24	Z24

393	1.568	0.84982948	0.15461627	-0.098881088	1.0626125	0.039473056	0.029987278	0.79335398	0.2983192	-0.13385719	0.91362745	0.058722977	0.062999094	0.80788716	0.27959119	-0.03639071	0.93475478	0.10352809	-0.024815564	0.71343723	0.32398087	-0.091048271	0.84593452	0.043248075	0.0099110795	1.1276601	0.52323607	-0.11768127	1.0233416	0.49961842	0.15241598	1.1196141	0.5096069	0.0086134997	1.0084165	0.49502471	0.024978439	0.94254985	0.89129544	-0.1439558	0.93680687	0.89779541	0.22784047	1.0140216	0.97821093	-0.083494811	1.0208814	0.98501314	0.1557526	0.84984558	1.0375992	0.037037668	1.0147422	1.4237382	-0.14739074	0.99950258	1.4534016	0.18161026	0.94423986	1.488647	0.014400632	0.83584345	1.1019205	-0.20298971	0.84836892	1.1301376	0.29763781	0.96428584	0.86784736	-0.23116787	1.0010899	0.90173291	0.32423392
394	1.572	0.86641842	0.15245315	-0.099004715	1.0627009	0.039481934	0.030092441	0.80621133	0.29450721	-0.13380999	0.91375359	0.059120372	0.062916665	0.82180666	0.27586458	-0.036505713	0.9352169	0.10389406	-0.024831379	0.72560496	0.31817965	-0.091004058	0.84609081	0.043842265	0.0097130517	1.1361593	0.52627559	-0.11695059	1.0246867	0.49977099	0.15277839	1.1275516	0.51255169	0.0089824191	1.0100159	0.49513923	0.025150036	0.94786466	0.89280109	-0.14410369	0.94123375	0.89864398	0.22769184	1.0189337	0.97976179	-0.083386123	1.0253144	0.98597617	0.1558185	0.85450613	1.0386845	0.037008715	1.0188974	1.4248803	-0.1472836	1.0039884	1.454576	0.18171175	0.94861023	1.4897765	0.014598243	0.83991887	1.1031986	-0.20249836	0.85317539	1.131222	0.29824453	0.96770095	0.86893095	-0.23143241	1.0067946	0.9033139	0.32412583
395	1.576	0.88312284	0.15023033	-0.098992599	1.0627614	0.039470771	0.030197801	0.81919471	0.2905189	-0.13375766	0.91387782	0.059512567	0.062848965	0.83600156	0.2720318	-0.036637997	0.9356909	0.10426956	-0.02484131	0.73794384	0.31217169	-0.09096042	0.84627579	0.044410689	0.0095652361	1.1445557	0.52920173	-0.11620387	1.0260417	0.49987348	0.15308588	1.1368751	0.51544853	0.0097769205	1.0117005	0.49517603	0.025457853	0.95328501	0.89424572	-0.14429671	0.94567853	0.89947437	0.22753717	1.0238601	0.98125551	-0.083281938	1.029736	0.98690571	0.15588388	0.85921293	1.0397183	0.036969956	1.0230565	1.4259821	-0.14716681	1.0084756	1.4556936	0.18183011	0.9529733	1.4908568	0.014802622	0.8440512	1.1044251	-0.20194395	0.85794428	1.1322481	0.29883554	0.97114032	0.86997622	-0.23168787	1.0124726	0.90484707	0.32401989
396	1.58	0.89992018	0.14792623	-0.098841513	1.0627867	0.039439844	0.030306448	0.83230104	0.28634359	-0.1336636	0.91398882	0.059907888	0.062797166	0.85028159	0.26810945	-0.036727744	0.93612853	0.10464384	-0.024828647	0.75044452	0.30597479	-0.090934874	0.84653138	0.044930872	0.0094905124	1.152822	0.5320225	-0.11546539	1.0273134	0.49998591	0.15324931	1.1469541	0.51828847	0.010821455	1.0134652	0.49517656	0.025807265	0.95887069	0.89563223	-0.1445636	0.95002019	0.90028027	0.22738546	1.0288011	0.98269925	-0.083180035	1.0341524	0.98779741	0.15595988	0.86390714	1.0406677	0.036891499	1.0272238	1.4270452	-0.14703818	1.0129695	1.456755	0.181968	0.95733508	1.4918935	0.015004764	0.84824557	1.105609	-0.20129975	0.86267962	1.1332153	0.29941379	0.97461588	0.87097917	-0.23193543	1.0181265	0.90633745	0.32391948
397	1.584	0.9167448	0.1455415	-0.098520042	1.0627968	0.039411018	0.030415937	0.84551968	0.28197907	-0.13349949	0.91408476	0.060314713	0.062755224	0.86435905	0.26411213	-0.036685037	0.93646516	0.10500064	-0.024776273	0.76310993	0.29958803	-0.090934055	0.84685921	0.045416133	0.0094853865	1.160923	0.53473546	-0.11476781	1.0284784	0.5001626	0.15328915	1.1565348	0.52103497	0.011753069	1.0152783	0.49519182	0.026061139	0.96462588	0.89695856	-0.14490235	0.95405938	0.90103723	0.22724757	1.0337413	0.98409672	-0.08307594	1.0385661	0.9886497	0.15605193	0.86856541	1.0415019	0.036753531	1.0313988	1.4280668	-0.14689944	1.0174594	1.457759	0.18212294	0.96170243	1.4928897	0.015198256	0.85246769	1.1067452	-0.20061407	0.86739149	1.1341209	0.29998463	0.97813415	0.8719269	-0.23217385	1.0237572	0.90778584	0.3238277
398	1.588	0.93357395	0.1431119	-0.098011493	1.0628398	0.039413868	0.030511575	0.8588458	0.27743923	-0.13326412	0.91417968	0.060728162	0.062710637	0.87817013	0.2600312	-0.036483829	0.93668085	0.10534116	-0.024685955	0.77595345	0.29300485	-0.090946082	0.84719745	0.045925875	0.009506005	1.16884	0.53733122	-0.11413068	1.0295681	0.50043167	0.15331159	1.1650555	0.52366715	0.012404914	1.017061	0.4952469	0.026184702	0.97043581	0.89822251	-0.14525819	0.95768375	0.90170094	0.22711983	1.0386637	0.98544165	-0.08296434	1.0429741	0.98946351	0.15615745	0.87324153	1.0422101	0.036522202	1.0355795	1.4290447	-0.14675499	1.0219277	1.4587047	0.18228883	0.96607635	1.4938389	0.015393288	0.8566597	1.1078285	-0.19999563	0.87208603	1.1349625	0.30054802	0.98169333	0.87281077	-0.23240267	1.0293623	0.90918268	0.32374741
